<mxfile host="app.diagrams.net" modified="2024-06-04T10:33:05.279Z" agent="Mozilla/5.0 (Windows NT 10.0; Win64; x64) AppleWebKit/537.36 (KHTML, like Gecko) Chrome/125.0.0.0 Safari/537.36" etag="5Rmqa9HeajEOWhPtpul2" version="24.4.13" type="device">
  <diagram id="C5RBs43oDa-KdzZeNtuy" name="Page-1">
    <mxGraphModel dx="1434" dy="738" grid="1" gridSize="10" guides="1" tooltips="1" connect="1" arrows="1" fold="1" page="1" pageScale="1" pageWidth="827" pageHeight="1169" math="0" shadow="0">
      <root>
        <mxCell id="WIyWlLk6GJQsqaUBKTNV-0" />
        <mxCell id="WIyWlLk6GJQsqaUBKTNV-1" parent="WIyWlLk6GJQsqaUBKTNV-0" />
        <mxCell id="WIyWlLk6GJQsqaUBKTNV-2" value="" style="rounded=0;html=1;jettySize=auto;orthogonalLoop=1;fontSize=11;endArrow=block;endFill=0;endSize=8;strokeWidth=1;shadow=0;labelBackgroundColor=none;edgeStyle=orthogonalEdgeStyle;" parent="WIyWlLk6GJQsqaUBKTNV-1" source="WIyWlLk6GJQsqaUBKTNV-3" edge="1">
          <mxGeometry relative="1" as="geometry">
            <mxPoint x="414" y="170" as="targetPoint" />
          </mxGeometry>
        </mxCell>
        <mxCell id="WIyWlLk6GJQsqaUBKTNV-3" value="(start &amp;amp;&amp;amp; !stop)" style="rounded=1;whiteSpace=wrap;html=1;fontSize=12;glass=0;strokeWidth=1;shadow=0;" parent="WIyWlLk6GJQsqaUBKTNV-1" vertex="1">
          <mxGeometry x="354" y="80" width="120" height="40" as="geometry" />
        </mxCell>
        <mxCell id="gpUH2TImx6clLYZyyQ1_-1" value="_Z_FORWARD&lt;div&gt;_X_FORWARD&lt;/div&gt;" style="rounded=1;whiteSpace=wrap;html=1;" vertex="1" parent="WIyWlLk6GJQsqaUBKTNV-1">
          <mxGeometry x="354" y="170" width="120" height="40" as="geometry" />
        </mxCell>
        <mxCell id="gpUH2TImx6clLYZyyQ1_-2" value="" style="endArrow=classic;html=1;rounded=0;exitX=0.5;exitY=1;exitDx=0;exitDy=0;" edge="1" parent="WIyWlLk6GJQsqaUBKTNV-1" source="gpUH2TImx6clLYZyyQ1_-1">
          <mxGeometry width="50" height="50" relative="1" as="geometry">
            <mxPoint x="390" y="410" as="sourcePoint" />
            <mxPoint x="414" y="370" as="targetPoint" />
          </mxGeometry>
        </mxCell>
        <mxCell id="gpUH2TImx6clLYZyyQ1_-3" value="" style="endArrow=classic;html=1;rounded=0;entryX=0;entryY=0.5;entryDx=0;entryDy=0;" edge="1" parent="WIyWlLk6GJQsqaUBKTNV-1" target="gpUH2TImx6clLYZyyQ1_-9">
          <mxGeometry width="50" height="50" relative="1" as="geometry">
            <mxPoint x="414" y="240" as="sourcePoint" />
            <mxPoint x="514" y="240" as="targetPoint" />
          </mxGeometry>
        </mxCell>
        <mxCell id="gpUH2TImx6clLYZyyQ1_-4" value="(stop)" style="text;html=1;align=center;verticalAlign=middle;whiteSpace=wrap;rounded=0;" vertex="1" parent="WIyWlLk6GJQsqaUBKTNV-1">
          <mxGeometry x="430" y="235" width="60" height="30" as="geometry" />
        </mxCell>
        <mxCell id="gpUH2TImx6clLYZyyQ1_-5" value="Z_LIMIT_BACK&lt;div&gt;X_LIMIT_BACK&lt;/div&gt;" style="rounded=1;whiteSpace=wrap;html=1;" vertex="1" parent="WIyWlLk6GJQsqaUBKTNV-1">
          <mxGeometry x="515" y="290" width="110" height="40" as="geometry" />
        </mxCell>
        <mxCell id="gpUH2TImx6clLYZyyQ1_-6" value="" style="endArrow=classic;html=1;rounded=0;exitX=0.5;exitY=1;exitDx=0;exitDy=0;entryX=0.5;entryY=0;entryDx=0;entryDy=0;" edge="1" parent="WIyWlLk6GJQsqaUBKTNV-1" source="gpUH2TImx6clLYZyyQ1_-9" target="gpUH2TImx6clLYZyyQ1_-5">
          <mxGeometry width="50" height="50" relative="1" as="geometry">
            <mxPoint x="520" y="410" as="sourcePoint" />
            <mxPoint x="680" y="240" as="targetPoint" />
          </mxGeometry>
        </mxCell>
        <mxCell id="gpUH2TImx6clLYZyyQ1_-7" value="" style="endArrow=classic;html=1;rounded=0;curved=0;entryX=1;entryY=0.5;entryDx=0;entryDy=0;exitX=1;exitY=0.5;exitDx=0;exitDy=0;" edge="1" parent="WIyWlLk6GJQsqaUBKTNV-1" source="gpUH2TImx6clLYZyyQ1_-5" target="gpUH2TImx6clLYZyyQ1_-9">
          <mxGeometry width="50" height="50" relative="1" as="geometry">
            <mxPoint x="725" y="300" as="sourcePoint" />
            <mxPoint x="670" y="290" as="targetPoint" />
            <Array as="points">
              <mxPoint x="690" y="310" />
              <mxPoint x="690" y="240" />
            </Array>
          </mxGeometry>
        </mxCell>
        <mxCell id="gpUH2TImx6clLYZyyQ1_-9" value="_Z_BACKWARD&lt;div&gt;_X_BACKWARD&lt;/div&gt;" style="rounded=1;whiteSpace=wrap;html=1;" vertex="1" parent="WIyWlLk6GJQsqaUBKTNV-1">
          <mxGeometry x="510" y="220" width="120" height="40" as="geometry" />
        </mxCell>
        <mxCell id="gpUH2TImx6clLYZyyQ1_-10" value="" style="endArrow=classic;html=1;rounded=0;exitX=0.5;exitY=1;exitDx=0;exitDy=0;" edge="1" parent="WIyWlLk6GJQsqaUBKTNV-1" source="gpUH2TImx6clLYZyyQ1_-5">
          <mxGeometry width="50" height="50" relative="1" as="geometry">
            <mxPoint x="520" y="410" as="sourcePoint" />
            <mxPoint x="570" y="410" as="targetPoint" />
          </mxGeometry>
        </mxCell>
        <mxCell id="gpUH2TImx6clLYZyyQ1_-12" value="true" style="text;html=1;align=center;verticalAlign=middle;whiteSpace=wrap;rounded=0;" vertex="1" parent="WIyWlLk6GJQsqaUBKTNV-1">
          <mxGeometry x="523" y="351" width="60" height="30" as="geometry" />
        </mxCell>
        <mxCell id="gpUH2TImx6clLYZyyQ1_-13" value="false" style="text;html=1;align=center;verticalAlign=middle;whiteSpace=wrap;rounded=0;" vertex="1" parent="WIyWlLk6GJQsqaUBKTNV-1">
          <mxGeometry x="679" y="264" width="60" height="30" as="geometry" />
        </mxCell>
        <mxCell id="gpUH2TImx6clLYZyyQ1_-14" value="break;" style="rounded=1;whiteSpace=wrap;html=1;" vertex="1" parent="WIyWlLk6GJQsqaUBKTNV-1">
          <mxGeometry x="530" y="410" width="80" height="30" as="geometry" />
        </mxCell>
        <mxCell id="gpUH2TImx6clLYZyyQ1_-15" value="" style="endArrow=classic;html=1;rounded=0;entryX=1;entryY=0.5;entryDx=0;entryDy=0;" edge="1" parent="WIyWlLk6GJQsqaUBKTNV-1" target="gpUH2TImx6clLYZyyQ1_-17">
          <mxGeometry width="50" height="50" relative="1" as="geometry">
            <mxPoint x="415" y="280" as="sourcePoint" />
            <mxPoint x="295" y="280" as="targetPoint" />
          </mxGeometry>
        </mxCell>
        <mxCell id="gpUH2TImx6clLYZyyQ1_-16" value="(sleep)" style="text;html=1;align=center;verticalAlign=middle;whiteSpace=wrap;rounded=0;" vertex="1" parent="WIyWlLk6GJQsqaUBKTNV-1">
          <mxGeometry x="333" y="274" width="60" height="30" as="geometry" />
        </mxCell>
        <mxCell id="gpUH2TImx6clLYZyyQ1_-17" value="sleep = !sleep" style="rounded=1;whiteSpace=wrap;html=1;" vertex="1" parent="WIyWlLk6GJQsqaUBKTNV-1">
          <mxGeometry x="200" y="260" width="90" height="39" as="geometry" />
        </mxCell>
        <mxCell id="gpUH2TImx6clLYZyyQ1_-18" value="" style="endArrow=classic;html=1;rounded=0;exitX=0.433;exitY=0.026;exitDx=0;exitDy=0;curved=1;entryX=0;entryY=0.5;entryDx=0;entryDy=0;exitPerimeter=0;" edge="1" parent="WIyWlLk6GJQsqaUBKTNV-1" source="gpUH2TImx6clLYZyyQ1_-17" target="gpUH2TImx6clLYZyyQ1_-17">
          <mxGeometry width="50" height="50" relative="1" as="geometry">
            <mxPoint x="235" y="215.5" as="sourcePoint" />
            <mxPoint x="130" y="220" as="targetPoint" />
            <Array as="points">
              <mxPoint x="230" y="180" />
              <mxPoint x="170" y="180" />
              <mxPoint x="140" y="220" />
            </Array>
          </mxGeometry>
        </mxCell>
        <mxCell id="gpUH2TImx6clLYZyyQ1_-19" value="(sleep)" style="text;html=1;align=center;verticalAlign=middle;whiteSpace=wrap;rounded=0;" vertex="1" parent="WIyWlLk6GJQsqaUBKTNV-1">
          <mxGeometry x="160" y="180" width="60" height="30" as="geometry" />
        </mxCell>
        <mxCell id="gpUH2TImx6clLYZyyQ1_-20" value="" style="endArrow=classic;html=1;rounded=0;exitX=0.5;exitY=1;exitDx=0;exitDy=0;" edge="1" parent="WIyWlLk6GJQsqaUBKTNV-1" source="gpUH2TImx6clLYZyyQ1_-17">
          <mxGeometry width="50" height="50" relative="1" as="geometry">
            <mxPoint x="270" y="410" as="sourcePoint" />
            <mxPoint x="410" y="330" as="targetPoint" />
            <Array as="points">
              <mxPoint x="245" y="330" />
            </Array>
          </mxGeometry>
        </mxCell>
        <mxCell id="gpUH2TImx6clLYZyyQ1_-21" value="!(sleep)" style="text;html=1;align=center;verticalAlign=middle;whiteSpace=wrap;rounded=0;" vertex="1" parent="WIyWlLk6GJQsqaUBKTNV-1">
          <mxGeometry x="301" y="327" width="60" height="30" as="geometry" />
        </mxCell>
        <mxCell id="gpUH2TImx6clLYZyyQ1_-22" value="색감지" style="rounded=1;whiteSpace=wrap;html=1;" vertex="1" parent="WIyWlLk6GJQsqaUBKTNV-1">
          <mxGeometry x="354" y="370" width="120" height="40" as="geometry" />
        </mxCell>
        <mxCell id="gpUH2TImx6clLYZyyQ1_-23" value="" style="endArrow=classic;html=1;rounded=0;exitX=0.5;exitY=1;exitDx=0;exitDy=0;" edge="1" parent="WIyWlLk6GJQsqaUBKTNV-1" source="gpUH2TImx6clLYZyyQ1_-22" target="gpUH2TImx6clLYZyyQ1_-24">
          <mxGeometry width="50" height="50" relative="1" as="geometry">
            <mxPoint x="480" y="410" as="sourcePoint" />
            <mxPoint x="414" y="460" as="targetPoint" />
          </mxGeometry>
        </mxCell>
        <mxCell id="gpUH2TImx6clLYZyyQ1_-24" value="X,Y축 레일 정지" style="rounded=1;whiteSpace=wrap;html=1;" vertex="1" parent="WIyWlLk6GJQsqaUBKTNV-1">
          <mxGeometry x="354" y="450" width="120" height="40" as="geometry" />
        </mxCell>
        <mxCell id="gpUH2TImx6clLYZyyQ1_-25" value="" style="endArrow=classic;html=1;rounded=0;exitX=0.5;exitY=1;exitDx=0;exitDy=0;" edge="1" parent="WIyWlLk6GJQsqaUBKTNV-1" source="gpUH2TImx6clLYZyyQ1_-24" target="gpUH2TImx6clLYZyyQ1_-26">
          <mxGeometry width="50" height="50" relative="1" as="geometry">
            <mxPoint x="480" y="410" as="sourcePoint" />
            <mxPoint x="414" y="540" as="targetPoint" />
          </mxGeometry>
        </mxCell>
        <mxCell id="gpUH2TImx6clLYZyyQ1_-26" value="압력센서 감지" style="rounded=1;whiteSpace=wrap;html=1;" vertex="1" parent="WIyWlLk6GJQsqaUBKTNV-1">
          <mxGeometry x="354" y="525" width="120" height="45" as="geometry" />
        </mxCell>
        <mxCell id="gpUH2TImx6clLYZyyQ1_-27" value="" style="endArrow=classic;html=1;rounded=0;exitX=0.5;exitY=1;exitDx=0;exitDy=0;" edge="1" parent="WIyWlLk6GJQsqaUBKTNV-1" source="gpUH2TImx6clLYZyyQ1_-26" target="gpUH2TImx6clLYZyyQ1_-28">
          <mxGeometry width="50" height="50" relative="1" as="geometry">
            <mxPoint x="480" y="410" as="sourcePoint" />
            <mxPoint x="414" y="620" as="targetPoint" />
          </mxGeometry>
        </mxCell>
        <mxCell id="gpUH2TImx6clLYZyyQ1_-28" value="Z축 레일 정지" style="rounded=1;whiteSpace=wrap;html=1;" vertex="1" parent="WIyWlLk6GJQsqaUBKTNV-1">
          <mxGeometry x="354" y="610" width="120" height="40" as="geometry" />
        </mxCell>
        <mxCell id="gpUH2TImx6clLYZyyQ1_-29" value="" style="endArrow=classic;html=1;rounded=0;exitX=0.5;exitY=1;exitDx=0;exitDy=0;entryX=0.5;entryY=0;entryDx=0;entryDy=0;" edge="1" parent="WIyWlLk6GJQsqaUBKTNV-1" source="gpUH2TImx6clLYZyyQ1_-28" target="gpUH2TImx6clLYZyyQ1_-31">
          <mxGeometry width="50" height="50" relative="1" as="geometry">
            <mxPoint x="480" y="910" as="sourcePoint" />
            <mxPoint x="414" y="700" as="targetPoint" />
          </mxGeometry>
        </mxCell>
        <mxCell id="gpUH2TImx6clLYZyyQ1_-33" value="" style="edgeStyle=orthogonalEdgeStyle;rounded=0;orthogonalLoop=1;jettySize=auto;html=1;" edge="1" parent="WIyWlLk6GJQsqaUBKTNV-1" source="gpUH2TImx6clLYZyyQ1_-31" target="gpUH2TImx6clLYZyyQ1_-32">
          <mxGeometry relative="1" as="geometry" />
        </mxCell>
        <mxCell id="gpUH2TImx6clLYZyyQ1_-31" value="(X,Y,Z 레일 정지) &amp;amp;&amp;amp; (압력센서 == true)" style="rhombus;whiteSpace=wrap;html=1;" vertex="1" parent="WIyWlLk6GJQsqaUBKTNV-1">
          <mxGeometry x="269" y="700" width="290" height="80" as="geometry" />
        </mxCell>
        <mxCell id="gpUH2TImx6clLYZyyQ1_-35" value="" style="edgeStyle=orthogonalEdgeStyle;rounded=0;orthogonalLoop=1;jettySize=auto;html=1;" edge="1" parent="WIyWlLk6GJQsqaUBKTNV-1" source="gpUH2TImx6clLYZyyQ1_-32" target="gpUH2TImx6clLYZyyQ1_-34">
          <mxGeometry relative="1" as="geometry" />
        </mxCell>
        <mxCell id="gpUH2TImx6clLYZyyQ1_-32" value="액추에이터 작동" style="rounded=1;whiteSpace=wrap;html=1;" vertex="1" parent="WIyWlLk6GJQsqaUBKTNV-1">
          <mxGeometry x="354" y="820" width="120" height="60" as="geometry" />
        </mxCell>
        <mxCell id="gpUH2TImx6clLYZyyQ1_-37" value="" style="edgeStyle=orthogonalEdgeStyle;rounded=0;orthogonalLoop=1;jettySize=auto;html=1;" edge="1" parent="WIyWlLk6GJQsqaUBKTNV-1" source="gpUH2TImx6clLYZyyQ1_-34" target="gpUH2TImx6clLYZyyQ1_-9">
          <mxGeometry relative="1" as="geometry">
            <mxPoint x="570" y="140" as="targetPoint" />
            <Array as="points">
              <mxPoint x="414" y="1010" />
              <mxPoint x="740" y="1010" />
              <mxPoint x="740" y="120" />
              <mxPoint x="570" y="120" />
            </Array>
          </mxGeometry>
        </mxCell>
        <mxCell id="gpUH2TImx6clLYZyyQ1_-34" value="심박수 정상" style="whiteSpace=wrap;html=1;rounded=1;" vertex="1" parent="WIyWlLk6GJQsqaUBKTNV-1">
          <mxGeometry x="354" y="920" width="120" height="60" as="geometry" />
        </mxCell>
        <mxCell id="gpUH2TImx6clLYZyyQ1_-39" value="true" style="text;html=1;align=center;verticalAlign=middle;whiteSpace=wrap;rounded=0;" vertex="1" parent="WIyWlLk6GJQsqaUBKTNV-1">
          <mxGeometry x="559" y="1010" width="60" height="30" as="geometry" />
        </mxCell>
        <mxCell id="gpUH2TImx6clLYZyyQ1_-41" value="" style="endArrow=classic;html=1;rounded=0;exitX=1;exitY=0.5;exitDx=0;exitDy=0;entryX=1;entryY=0.5;entryDx=0;entryDy=0;" edge="1" parent="WIyWlLk6GJQsqaUBKTNV-1" source="gpUH2TImx6clLYZyyQ1_-34" target="gpUH2TImx6clLYZyyQ1_-32">
          <mxGeometry width="50" height="50" relative="1" as="geometry">
            <mxPoint x="480" y="630" as="sourcePoint" />
            <mxPoint x="414" y="800" as="targetPoint" />
            <Array as="points">
              <mxPoint x="540" y="950" />
              <mxPoint x="540" y="850" />
            </Array>
          </mxGeometry>
        </mxCell>
        <mxCell id="gpUH2TImx6clLYZyyQ1_-42" value="false" style="text;html=1;align=center;verticalAlign=middle;whiteSpace=wrap;rounded=0;" vertex="1" parent="WIyWlLk6GJQsqaUBKTNV-1">
          <mxGeometry x="530" y="890" width="60" height="30" as="geometry" />
        </mxCell>
      </root>
    </mxGraphModel>
  </diagram>
</mxfile>
